<svg xmlns="http://www.w3.org/2000/svg" viewBox="0 0 72 72">
  <defs>
    <linearGradient id="g" x1="14" x2="58" y1="10" y2="62" gradientUnits="userSpaceOnUse">
      <stop stop-color="#047d3f"/>
      <stop offset="1" stop-color="#29b962"/>
    </linearGradient>
  </defs>
  <rect width="72" height="72" rx="18" fill="#f2faf4"/>
  <path d="M20.5 15.5c13.5 3.7 21.8 12.1 24.9 25.4-6.4 4.7-14.7 7.5-24.9 8.6-7.3-9.8-7.3-21.1 0-34Z" fill="url(#g)"/>
  <path d="M47.3 34c7.6-5.8 15.2-7.3 22.7-4.6.1 10.8-5 19.5-15.2 26-7.5-2.3-12.7-6.9-15.7-14 2-2.8 4.7-5.3 8.2-7.4Z" fill="#25ad58" transform="translate(-10 2)"/>
  <path d="M25 29c7.3 8.2 11.2 17 11.7 26.5" fill="none" stroke="#fff" stroke-linecap="round" stroke-width="4"/>
  <path d="M40.2 48.2c5.1-7.2 11.2-12 18.2-14.4" fill="none" stroke="#fff" stroke-linecap="round" stroke-width="4"/>
  <path d="M51.5 9.5c1.5 5.1 4.3 8 8.5 8.8-4.7 1.4-7.5 4.5-8.5 9.4-1.4-4.8-4.3-7.9-8.7-9.4 4.7-1.2 7.6-4.1 8.7-8.8Z" fill="#27b45d"/>
</svg>
